<svg width="6391" height="2386" viewBox="0 0 6391 2386" fill="none" xmlns="http://www.w3.org/2000/svg">
<g clip-path="url(#clip0_1182_600)">
<path d="M4472.39 1047.31V961.047H4890.5V1047.31L4616.15 1513.34H4890.5V1600.8H4472.39V1513.34L4747.93 1047.31H4472.39Z" fill="#F9FAFB"/>
<path d="M3923.39 1593.27V719.899H4045.59V1207.5L4251.65 953.515H4396.61L4196.54 1196.72L4422.97 1593.27H4283.99L4111.48 1299.75L4045.59 1381.21V1593.27H3923.39Z" fill="#F9FAFB"/>
<path d="M3382.62 1472.61V1088.04C3382.62 1011.36 3434.14 961.047 3510.81 961.047H3673.75C3750.42 961.047 3801.94 1011.36 3801.94 1088.04V1472.61C3801.94 1549.28 3750.42 1600.8 3673.75 1600.8H3510.81C3434.14 1600.8 3382.62 1549.28 3382.62 1472.61ZM3555.14 1513.34H3629.42C3659.37 1513.34 3679.74 1492.97 3679.74 1463.02V1098.82C3679.74 1067.67 3659.37 1047.31 3629.42 1047.31H3555.14C3525.19 1047.31 3504.82 1067.67 3504.82 1098.82V1463.02C3504.82 1492.97 3525.19 1513.34 3555.14 1513.34Z" fill="#F9FAFB"/>
<path d="M3305.72 962.504V1083.51C3270.97 1075.12 3236.23 1071.53 3205.08 1071.53C3140.39 1071.53 3091.27 1090.69 3091.27 1142.21V1287.93L2969.07 1531.04V962.504H3085.28V1023.6C3120.02 981.673 3215.87 949.326 3305.72 962.504Z" fill="#F9FAFB"/>
<path d="M2549.98 1455.82V1273.76H2544.9H2427.78V727.414H2549.98V1010.15C2582.33 975.407 2635.04 955.041 2693.74 955.041C2782.4 955.041 2847.09 1004.16 2847.09 1089.22V1472.59C2847.09 1557.65 2782.4 1606.77 2693.74 1606.77C2631.45 1606.77 2575.14 1582.81 2543.99 1545.67L2549.98 1455.82ZM2549.98 1105.99V1384.95V1455.82C2549.98 1488.17 2597.9 1513.32 2645.82 1513.32C2697.34 1513.32 2724.89 1489.36 2724.89 1458.21V1103.6C2724.89 1071.25 2697.34 1047.29 2645.82 1047.29C2597.9 1047.29 2549.98 1072.45 2549.98 1105.99Z" fill="#F9FAFB"/>
<path d="M2523.94 1593.92L2383.77 1593.91L2550.07 1273.8L2691.16 1273.79L2656.16 1344.02L2523.94 1593.92Z" fill="#5FDD82"/>
<path d="M3065.13 1608.05L2924.96 1608.04L2957.11 1550.91L3091.26 1287.93L3091.26 1287.93L3232.35 1287.92L3197.35 1358.16L3065.13 1608.05Z" fill="#5FDD82"/>
<g clip-path="url(#clip1_1182_600)">
<rect x="1499.91" y="860.422" width="740.189" height="740.189" rx="71.0581" fill="#F9FAFB"/>
<path d="M2106.25 1496.85C2099.83 1508.97 2087.24 1516.55 2073.53 1516.55L1870.86 1516.53C1842.55 1516.53 1824.73 1486.04 1838.61 1461.37L1873.69 1399.05L2137.68 885.088L2139.81 880.269C2145.74 866.876 2159.01 858.239 2173.65 858.238L2379.91 858.223C2407.4 858.222 2425.3 887.135 2413.04 911.741L2367.73 1002.66L2106.25 1496.85Z" fill="#5FDD82"/>
<path d="M1524.74 1674.77C1518.33 1686.89 1505.74 1694.47 1492.03 1694.47L1268.7 1694.45C1240.39 1694.45 1222.56 1663.96 1236.45 1639.29L1276.27 1568.54L1559.18 1017.74L1562.16 1011C1568.09 997.607 1581.35 988.97 1596 988.969L1823.06 988.953C1850.55 988.951 1868.45 1017.86 1856.18 1042.47L1805.72 1143.74L1524.74 1674.77Z" fill="#5FDD82"/>
</g>
</g>
<defs>
<clipPath id="clip0_1182_600">
<rect width="2385.14" height="6390.42" fill="white" transform="translate(6390.43 0.000279334) rotate(90)"/>
</clipPath>
<clipPath id="clip1_1182_600">
<rect x="1499.91" y="860.422" width="740.189" height="740.189" rx="71.0581" fill="white"/>
</clipPath>
</defs>
</svg>
