<svg width="3006" height="3006" viewBox="0 0 3006 3006" fill="none" xmlns="http://www.w3.org/2000/svg">
<g clip-path="url(#clip0_1182_1008)">
<rect x="520.012" y="519.258" width="1966.57" height="1966.57" rx="188.791" fill="#050A06"/>
<path d="M2130.94 2210.16C2113.9 2242.36 2080.45 2262.5 2044.02 2262.5L1505.56 2262.45C1430.35 2262.45 1382.99 2181.44 1419.88 2115.9L1513.08 1950.3L2214.45 584.795L2220.11 571.992C2235.86 536.409 2271.11 513.46 2310.02 513.457L2858.02 513.42C2931.07 513.415 2978.62 590.233 2946.04 655.607L2825.66 897.157L2130.94 2210.16Z" fill="#5FDD82"/>
<path d="M585.973 2682.87C568.934 2715.07 535.485 2735.21 499.052 2735.21L-94.3012 2735.16C-169.513 2735.15 -216.871 2654.14 -179.981 2588.6L-74.1843 2400.63L677.454 937.245L685.383 919.328C701.131 883.745 736.381 860.796 775.293 860.793L1378.55 860.752C1451.59 860.747 1499.14 937.565 1466.56 1002.94L1332.47 1272L585.973 2682.87Z" fill="#5FDD82"/>
</g>
<defs>
<clipPath id="clip0_1182_1008">
<rect x="520.012" y="519.258" width="1966.57" height="1966.57" rx="188.791" fill="white"/>
</clipPath>
</defs>
</svg>
